HIERARCHY
ROOT SpineBase
{
  OFFSET 0.000000 0.000000 0.000000
  CHANNELS 6 Xposition Yposition Zposition Zrotation Xrotation Yrotation
  JOINT SpineMid
  {
    OFFSET -0.000000 31.207859 0.000000
    CHANNELS 3 Zrotation Xrotation Yrotation
    JOINT SpineShoulder
    {
      OFFSET 0.209348 23.179194 -0.748133
      CHANNELS 3 Zrotation Xrotation Yrotation
      JOINT Neck
      {
        OFFSET 0.097251 7.704758 -0.568790
        CHANNELS 3 Zrotation Xrotation Yrotation
        JOINT Head
        {
          OFFSET 7.038468 10.150256 3.216114
          CHANNELS 3 Zrotation Xrotation Yrotation
          End Site
          {
            OFFSET 0 0 0
          }
        }
      }
      JOINT ShoulderLeft
      {
        OFFSET -7.669705 -2.820895 -13.158422
        CHANNELS 3 Zrotation Xrotation Yrotation
        JOINT ElbowLeft
        {
          OFFSET -5.071179 -21.641176 -7.870525
          CHANNELS 3 Zrotation Xrotation Yrotation
          JOINT WristLeft
          {
            OFFSET 4.125032 -25.548680 -2.254998
            CHANNELS 3 Zrotation Xrotation Yrotation
            JOINT HandLeft
            {
              OFFSET 0.557286 -7.076929 0.754248
              CHANNELS 3 Zrotation Xrotation Yrotation
              JOINT HandTipLeft
              {
                OFFSET 1.159917 -6.815864 0.369731
                CHANNELS 3 Zrotation Xrotation Yrotation
                End Site
                {
                  OFFSET 0 0 0
                }
              }
              JOINT ThumbLeft
              {
                OFFSET 2.081788 2.828015 0.614621
                CHANNELS 3 Zrotation Xrotation Yrotation
                End Site
                {
                  OFFSET 0 0 0
                }
              }
            }
          }
        }
      }
      JOINT ShoulderRight
      {
        OFFSET 9.676684 -9.605157 8.544490
        CHANNELS 3 Zrotation Xrotation Yrotation
        JOINT ElbowRight
        {
          OFFSET 1.733670 -23.718200 8.453001
          CHANNELS 3 Zrotation Xrotation Yrotation
          JOINT WristRight
          {
            OFFSET 0.330506 -25.622665 -4.807790
            CHANNELS 3 Zrotation Xrotation Yrotation
            JOINT HandRight
            {
              OFFSET 0.532336 -10.382917 -2.453039
              CHANNELS 3 Zrotation Xrotation Yrotation
              JOINT HandTipRight
              {
                OFFSET -0.542978 -0.274384 -1.490657
                CHANNELS 3 Zrotation Xrotation Yrotation
                End Site
                {
                  OFFSET 0 0 0
                }
              }
              JOINT ThumbRight
              {
                OFFSET -0.029859 1.058273 -1.927853
                CHANNELS 3 Zrotation Xrotation Yrotation
                End Site
                {
                  OFFSET 0 0 0
                }
              }
            }
          }
        }
      }
    }
  }
  JOINT HipLeft
  {
    OFFSET -3.791374 2.690090 -8.000663
    CHANNELS 3 Zrotation Xrotation Yrotation
    JOINT KneeLeft
    {
      OFFSET -6.565629 -35.208559 -3.332350
      CHANNELS 3 Zrotation Xrotation Yrotation
      JOINT AnkleLeft
      {
        OFFSET -7.629413 -34.983677 6.410626
        CHANNELS 3 Zrotation Xrotation Yrotation
        JOINT FootLeft
        {
          OFFSET 4.172257 -6.639403 -3.026044
          CHANNELS 3 Zrotation Xrotation Yrotation
          End Site
          {
            OFFSET 0 0 0
          }
        }
      }
    }
  }
  JOINT HipRight
  {
    OFFSET 4.363692 -0.041706 1.292321
    CHANNELS 3 Zrotation Xrotation Yrotation
    JOINT KneeRight
    {
      OFFSET -2.608082 -38.597130 3.231219
      CHANNELS 3 Zrotation Xrotation Yrotation
      JOINT AnkleRight
      {
        OFFSET -13.425538 -31.532428 -4.111545
        CHANNELS 3 Zrotation Xrotation Yrotation
        JOINT FootRight
        {
          OFFSET -6.200952 -1.800950 -8.702191
          CHANNELS 3 Zrotation Xrotation Yrotation
          End Site
          {
            OFFSET 0 0 0
          }
        }
      }
    }
  }
}
MOTION
Frames: 14
Frame Time: 0.033333
-19.735298 76.270667 289.419528 0.000000 0.000000 -48.731399 -0.000000 0.000000 48.731399 -0.000000 0.000000 0.000000 -0.000000 0.000000 0.000000 0.000000 0.000000 0.000000 -0.000000 0.000000 0.000000 -0.000000 0.000000 0.000000 -0.000000 0.000000 0.000000 -0.000000 0.000000 0.000000 0.000000 0.000000 0.000000 0.000000 0.000000 0.000000 -0.000000 0.000000 0.000000 -0.000000 0.000000 0.000000 -0.000000 0.000000 0.000000 -0.000000 0.000000 0.000000 0.000000 0.000000 0.000000 0.000000 0.000000 0.000000 -0.000000 0.000000 48.731399 -0.000000 0.000000 0.000000 -0.000000 0.000000 0.000000 0.000000 0.000000 0.000000 -0.000000 0.000000 48.731399 -0.000000 0.000000 0.000000 -0.000000 0.000000 0.000000 0.000000 0.000000 0.000000
-19.745011 76.382758 289.352883 -0.066433 0.098971 -48.859891 0.118242 -0.015083 48.859964 -0.000000 0.000000 0.000000 0.578182 -0.635940 0.262372 0.000000 0.000000 0.000000 -0.000000 0.000000 0.000000 1.495926 0.400529 -0.072427 1.969213 3.995259 0.670386 -2.235850 -3.497823 -0.546001 0.000000 0.000000 0.000000 0.000000 0.000000 0.000000 -0.000000 0.000000 0.000000 -0.000000 0.000000 0.000000 -1.954519 -6.069550 0.047337 0.975917 9.742773 -1.675156 0.000000 0.000000 0.000000 0.000000 0.000000 0.000000 0.118242 -0.015083 48.859964 -0.000000 0.000000 0.000000 -0.465216 -1.384188 -0.668846 0.000000 0.000000 0.000000 0.118242 -0.015083 48.859964 -0.000000 0.000000 0.000000 -0.287050 -0.560550 3.365267 0.000000 0.000000 0.000000
-19.752664 76.482345 289.300618 -0.186305 0.208921 -48.956107 0.279904 0.003327 48.956439 -0.000000 0.000000 0.000000 0.985927 -1.088679 0.456002 0.000000 0.000000 0.000000 -0.000000 0.000000 0.000000 2.735219 0.797863 -0.131103 3.263582 6.826449 1.022095 -3.713971 -5.943151 -0.958533 0.000000 0.000000 0.000000 0.000000 0.000000 0.000000 -0.000000 0.000000 0.000000 -0.000000 0.000000 0.000000 -4.421199 -13.390537 -0.168898 3.420238 18.237613 -3.475050 0.000000 0.000000 0.000000 0.000000 0.000000 0.000000 1.396301 -0.205805 49.086811 -0.573180 0.980597 -0.123494 -0.907350 -2.441043 -1.156937 0.000000 0.000000 0.000000 0.279904 0.003327 48.956439 1.013163 -0.626595 0.140847 -1.336725 -0.528771 5.638782 0.000000 0.000000 0.000000
-19.758256 76.569426 289.262731 -0.359967 0.329952 -49.022835 0.485153 0.055400 49.023637 -0.000000 0.000000 0.000000 1.223483 -1.362021 0.577824 0.000000 0.000000 0.000000 -0.000000 0.000000 0.000000 3.699373 1.190642 -0.171784 4.113089 8.715620 1.202652 -4.613829 -7.594992 -1.227739 0.000000 0.000000 0.000000 0.000000 0.000000 0.000000 -0.000000 0.000000 0.000000 -0.000000 0.000000 0.000000 -7.319542 -21.244812 -0.782088 7.235005 24.712059 -5.946852 0.000000 0.000000 0.000000 0.000000 0.000000 0.000000 2.007193 -0.173876 49.189859 -0.821372 1.301780 -0.155317 -1.311989 -3.155192 -1.449951 0.000000 0.000000 0.000000 0.485153 0.055400 49.023637 1.341683 -0.956347 0.244926 -1.478126 -0.810313 7.030824 0.000000 0.000000 0.000000
-19.761789 76.644002 289.239222 -0.587811 0.462168 -49.061974 -0.008262 -0.191744 49.036193 -0.259162 0.149341 -0.052401 2.291544 -1.947375 0.721388 0.000000 0.000000 0.000000 0.997865 -0.490829 0.084120 4.372794 1.577568 -0.190244 4.679896 9.839595 1.291281 -5.075391 -8.643747 -1.370958 0.000000 0.000000 0.000000 0.000000 0.000000 0.000000 0.997865 -0.490829 0.084120 -0.000000 0.000000 0.000000 -10.265088 -28.138150 -1.730380 11.913847 27.334811 -9.190911 0.000000 0.000000 0.000000 0.000000 0.000000 0.000000 2.559133 -0.053837 49.244278 -1.043805 1.509584 -0.168478 -1.668512 -3.517361 -1.537245 0.000000 0.000000 0.000000 0.734282 0.141223 49.063440 1.547430 -1.299140 0.371604 -1.302386 -1.088683 7.545192 0.000000 0.000000 0.000000
-19.763262 76.706073 289.230092 -0.870264 0.605678 -49.074692 -0.027378 -0.222195 49.038877 -0.268703 0.146864 -0.066745 2.518468 -2.002454 0.726711 0.000000 0.000000 0.000000 1.325875 -0.625378 0.112986 4.742539 1.957232 -0.182351 5.075173 10.324202 1.328393 -5.198752 -9.217039 -1.411987 0.000000 0.000000 0.000000 0.000000 0.000000 0.000000 1.325875 -0.625378 0.112986 -0.000000 0.000000 0.000000 -12.498250 -32.348263 -2.568902 16.234930 23.872128 -12.336096 0.000000 0.000000 0.000000 0.000000 0.000000 0.000000 3.052474 0.153169 49.250843 -1.564126 2.413759 -0.388733 -1.628735 -4.338675 -1.201045 0.000000 0.000000 0.000000 1.027699 0.260805 49.076953 1.626212 -1.656941 0.521111 -0.833276 -1.366413 7.240261 0.000000 0.000000 0.000000
-19.886060 76.820682 289.132914 -1.173281 0.786457 -48.927440 -0.113045 -0.321181 48.877662 -0.270910 0.119848 -0.085535 2.802200 -1.895633 0.630138 0.000000 0.000000 0.000000 1.762444 -0.776401 0.151815 5.093896 2.377768 -0.170182 5.677322 10.661086 1.367315 -4.804539 -9.196241 -1.248736 0.000000 0.000000 0.000000 0.000000 0.000000 0.000000 1.762444 -0.776401 0.151815 -0.000000 0.000000 0.000000 -15.296332 -35.649499 -3.489569 21.437264 12.332580 -16.120522 0.000000 0.000000 0.000000 0.000000 0.000000 0.000000 3.694357 0.189035 49.138015 -1.672597 2.760112 -0.428334 -1.409583 -4.144833 -1.126877 0.000000 0.000000 0.000000 1.363715 0.367863 48.931114 1.686237 -2.419086 0.853527 -0.186242 -1.169125 5.478952 0.000000 0.000000 0.000000
-19.917651 76.848191 289.161447 -1.567862 0.943043 -49.019770 -0.128138 -0.339131 48.958803 -0.222277 0.072381 -0.099822 2.132791 -0.883681 0.185009 0.000000 0.000000 0.000000 3.036483 -0.067605 -0.327280 3.567076 1.936399 0.512058 6.722055 9.781651 1.349972 -4.866642 -8.811540 -1.236149 0.000000 0.000000 0.000000 0.000000 0.000000 0.000000 2.132791 -0.883681 0.185009 -0.000000 0.000000 0.000000 -14.791966 -32.639479 -2.770796 23.257020 -6.480502 -15.904932 0.000000 0.000000 0.000000 0.000000 0.000000 0.000000 3.966251 0.466906 49.199016 -1.731330 2.582946 -0.407079 -1.151820 -3.123156 -0.561754 0.000000 0.000000 0.000000 1.740064 0.565310 49.024089 1.267849 -2.822413 1.076348 1.176686 -1.495820 2.792985 0.000000 0.000000 0.000000
-19.843411 76.812837 289.244859 -2.046195 1.138422 -49.042079 -0.155152 -0.290150 48.971486 -0.146188 0.027961 -0.114145 2.517042 -1.084746 0.223275 0.000000 0.000000 0.000000 3.884772 0.174115 -0.557915 2.200435 1.861081 0.937891 6.727285 8.406548 1.258628 -4.495231 -9.337248 -1.281860 0.000000 0.000000 0.000000 0.000000 0.000000 0.000000 2.517042 -1.084746 0.223275 -0.000000 0.000000 0.000000 -11.616428 -24.286674 -1.078843 24.262617 -27.338854 -11.377199 0.000000 0.000000 0.000000 0.000000 0.000000 0.000000 4.136491 1.086952 49.112216 -2.212014 1.914749 -0.332921 -1.548058 -1.275221 0.893049 0.000000 0.000000 0.000000 2.200882 0.799250 49.047057 0.880259 -3.132498 1.251851 1.647733 -1.635402 4.167597 0.000000 0.000000 0.000000
-19.679965 76.780589 289.376538 -2.524814 1.336811 -49.136081 -0.136502 -0.184520 49.061443 -0.040697 -0.033127 -0.123126 1.633960 -0.380252 -0.016696 0.000000 0.000000 0.000000 4.712670 0.446034 -0.830758 0.424560 1.650138 1.401663 6.025449 7.087106 1.051572 -5.115116 -9.292410 -1.529812 0.000000 0.000000 0.000000 0.000000 0.000000 0.000000 2.799449 -1.275362 0.253838 -0.000000 0.000000 0.000000 -7.624135 -13.691854 0.187869 27.572226 -45.463065 -2.522923 0.000000 0.000000 0.000000 0.000000 0.000000 0.000000 3.970134 1.546415 49.116427 -2.579605 1.143446 -0.327621 -3.004440 -1.166525 1.904815 0.000000 0.000000 0.000000 4.978085 2.917364 49.342922 -3.179772 -2.679469 1.129357 3.307498 -1.595374 0.235949 0.000000 0.000000 0.000000
-19.424435 76.765911 289.498186 -3.153879 1.653096 -49.219864 -0.065571 -0.088586 49.143271 0.015233 -0.060201 -0.141283 0.938585 -0.174008 0.029688 0.000000 0.000000 0.000000 5.467633 0.635685 -0.997118 -1.091332 1.568184 1.789767 5.281714 4.253756 0.754568 -3.700574 -7.511172 -1.154018 0.000000 0.000000 0.000000 0.000000 0.000000 0.000000 3.255818 -1.569911 0.304657 -0.000000 0.000000 0.000000 -5.828069 -11.702538 0.183158 30.993859 -51.404978 3.479149 0.000000 0.000000 0.000000 0.000000 0.000000 0.000000 4.642219 3.034295 48.947993 -4.718696 -0.012957 -0.267921 -3.617991 -0.517313 3.139982 0.000000 0.000000 0.000000 6.439736 2.903122 49.474491 -3.862533 -0.630638 0.601420 5.864938 -5.189919 -3.393341 0.000000 0.000000 0.000000
-18.975394 76.719895 289.629175 -3.830461 2.002084 -49.039210 0.048201 0.032646 48.966804 0.063224 -0.074157 -0.159880 0.379073 -0.297812 0.233855 0.000000 0.000000 0.000000 5.908271 0.928201 -1.075622 -2.071849 1.335855 2.062051 5.292183 1.678861 0.503105 -2.112019 -6.133341 -0.829550 0.000000 0.000000 0.000000 0.000000 0.000000 0.000000 3.720908 -1.893505 0.359907 -0.000000 0.000000 0.000000 -2.890138 -5.420195 0.271409 35.588564 -57.410676 13.298868 0.000000 0.000000 0.000000 0.000000 0.000000 0.000000 5.794079 5.102537 48.400997 -8.091005 -1.404431 -0.278603 -5.168073 -1.295588 4.137019 0.000000 0.000000 0.000000 6.062704 2.190758 49.211051 -2.609452 -0.419141 0.568363 8.670972 -8.690969 -10.417805 0.000000 0.000000 0.000000
-18.462612 76.667841 289.774023 -4.471452 2.337581 -49.487749 0.136596 0.143993 49.423458 0.093964 -0.079959 -0.179266 -0.053500 -0.313495 0.323457 0.000000 0.000000 0.000000 6.283750 1.134972 -1.105153 -2.645062 1.128730 2.246598 5.773714 -0.320227 0.370526 -1.401568 -2.810736 -0.398775 0.000000 0.000000 0.000000 0.000000 0.000000 0.000000 4.192273 -2.222559 0.418632 -0.000000 0.000000 0.000000 -1.741035 -4.149421 0.136729 38.193064 -59.494089 17.440261 0.000000 0.000000 0.000000 0.000000 0.000000 0.000000 7.276086 7.393213 48.426478 -12.375894 -2.645538 -0.466924 -2.670828 0.574992 5.335245 0.000000 0.000000 0.000000 4.750119 0.759663 49.485594 -0.364013 0.215778 0.412183 11.105942 -12.215610 -22.823885 0.000000 0.000000 0.000000
-17.754384 76.597017 289.887483 -5.129825 2.608336 -49.228125 0.201684 0.230875 49.172132 0.111491 -0.083632 -0.201754 0.063020 -1.965968 1.360246 0.000000 0.000000 0.000000 6.289899 1.361374 -0.968685 -2.168380 1.096744 2.251967 6.676952 -3.002320 0.420260 -0.645791 1.399322 -0.016432 0.000000 0.000000 0.000000 0.000000 0.000000 0.000000 4.728043 -2.491280 0.483026 -0.000000 0.000000 0.000000 -1.253120 -3.801708 0.059997 36.010654 -58.401884 15.949804 0.000000 0.000000 0.000000 0.000000 0.000000 0.000000 9.187482 9.981622 47.609036 -15.950731 -3.201110 -0.538989 -0.946751 -0.021333 4.856442 0.000000 0.000000 0.000000 2.765419 -1.700659 48.909299 4.609417 0.624182 0.319809 12.263169 -18.215347 -38.250371 0.000000 0.000000 0.000000
